<svg xmlns="http://www.w3.org/2000/svg" version="1.1" xmlns:xlink="http://www.w3.org/1999/xlink" xmlns:svgjs="http://svgjs.dev/svgjs" width="100%" height="100%" viewBox="0 0 1000 600"><rect width="1000" height="600" x="0" y="0" fill="#234e70"/><g><circle r="166.66666666666666" cx="331.6025950113932" cy="353.82482339928526" fill="#fbf8be" transform="matrix(0.7578697918189312,0,0,0.7578697918189312,0,31.846808733478625)"/><path d="M398.7342380002009 332.7835782099947L398.7342380002009 332.7835782099947Q398.7342380002009 342.8326938222985 394.9326664049305 350.49477610733965Q391.1605643569103 358.18632793963087 384.7951421508762 363.81501146441104Q378.4297199448421 369.4731645364413 370.11930762029755 373.2452665844616Q361.83836484300315 377.0173686324818 352.8206833844548 379.3159933179941Q343.83247147315666 381.58514845625626 334.755850920108 382.52817396826134Q325.67923036705935 383.44172993301623 317.7224526095167 383.44172993301623L317.7224526095167 383.44172993301623Q311.5927867814839 383.44172993301623 305.5809991424517 383.23544310226515Q299.5692115034194 383.02915627151395 293.4690152226367 382.2040089485096L293.4690152226367 382.2040089485096L293.05644156113453 428.6185458675083L266.32756220524124 428.8248326982594Q266.5338490359924 392.37100274981407 265.7971103547384 356.24133782112045Q265.0898412207346 320.1411424396769 264.4709807284813 283.6873124912315L264.4709807284813 283.6873124912315Q271.80889799377064 282.24330467597383 280.00143212931454 281.30027916396875Q288.19396626485843 280.3572536519637 296.5633176839033 279.7973322542107Q304.9621386501983 279.2374108564577 313.2430814274927 279.0311240257066Q321.55349375203724 278.82483719495553 329.0976978480777 278.82483719495553L329.0976978480777 278.82483719495553Q337.40811017262223 278.82483719495553 345.7774615916671 280.1509668212126Q354.1762825579621 281.50656599471984 361.89730393750347 284.3061729834849Q369.6183253170449 287.1057799722499 376.33738209008084 291.4378034180231Q383.08590841036704 295.7992964110465 388.0662618956437 301.8110840500787Q393.01714583367027 307.8228716891109 395.8756919169356 315.54389306865227Q398.7342380002009 323.2649144481937 398.7342380002009 332.7835782099947ZM313.2430814274927 289.28652646876156L313.2430814274927 289.28652646876156Q307.96803246971444 289.28652646876156 302.6340444174358 289.4928132995127Q297.3000563651573 289.6991001302638 292.025007407379 290.31796062251715L292.025007407379 290.31796062251715L293.67530205338784 371.9486065054546Q298.5377773496639 372.6853451867085 303.5181308349406 372.77375382845906Q308.49848432021724 372.8916320174597 313.6556550889949 372.8916320174597L313.6556550889949 372.8916320174597Q320.6104682400322 372.8916320174597 327.5063422965692 372.06648469445526Q334.4022163531061 371.2118678242006 340.62029082288944 369.2963472529404Q346.8088957454226 367.38082668168016 352.113414250451 364.2275851259132Q357.38846320822927 361.07434357014637 361.27844344525016 356.3592160101211Q365.168423682271 351.6440884500958 367.3491701787827 345.3670748858121Q369.50044712804424 339.11953086877867 369.50044712804424 330.8091185442341L369.50044712804424 330.8091185442341Q369.50044712804424 323.14703625919304 367.1428833480316 317.1057790729107Q364.7558500207688 311.0350523393781 360.65958295299686 306.40833342110335Q356.5633158852249 301.8110840500787 351.08198009669553 298.5399643053112Q345.571174760916 295.2983141077938 339.35310029113265 293.20597625303253Q333.1350258213493 291.14310794552154 326.47490814281366 290.2000824335165Q319.7853209170278 289.28652646876156 313.2430814274927 289.28652646876156Z " fill="#234e70" transform="matrix(0.7578697918189312,0,0,0.7578697918189312,0,31.846808733478625)"/><path d="M698.6431933192116 340.8645671863157L698.6431933192116 340.8645671863157Q698.6431933192116 349.62462835997104 695.3292698840164 356.30385388827125Q692.0410357777764 363.00876874552654 686.4921407234962 367.9154305759317Q680.9432456692159 372.8477817352919 673.6988549039056 376.136015841532Q666.4801534675503 379.42424994777224 658.6192188073201 381.42801760626224Q650.7839734760447 383.4060959357973 642.8716601579044 384.2281544623574Q634.9593468397641 385.0245236599624 628.0232280219138 385.0245236599624L628.0232280219138 385.0245236599624Q622.6798475992737 385.0245236599624 617.4392244924534 384.8446983572774Q612.1986013856332 384.6648730545924 606.880910291948 383.9455718438524L606.880910291948 383.9455718438524L606.521259686578 424.40626494797897L583.2210383243921 424.586090250664Q583.4008636270771 392.80839033332774 582.758630403202 361.3132730344965Q582.1420865082821 329.8438450646202 581.602610600227 298.066145147284L581.602610600227 298.066145147284Q587.9992535100223 296.8073680284889 595.1408869595125 295.9853095019289Q602.2825204090028 295.1632509753689 609.5782898322232 294.6751537252238Q616.8997485843984 294.1870564750788 624.1184500207537 294.00723117239386Q631.362840786064 293.82740586970885 637.9393089985442 293.82740586970885L637.9393089985442 293.82740586970885Q645.1836997638545 293.82740586970885 652.4794691870748 294.9834256726839Q659.8009279392501 296.1651348046139 666.5315321254603 298.60562105533904Q673.2621363116706 301.0461073060641 679.1193033134108 304.82243866244926Q685.0021596441061 308.6244593477894 689.3436562375012 313.86508245460965Q693.6594635019414 319.10570556142983 696.1513284105765 325.8363097476401Q698.6431933192116 332.56691393385034 698.6431933192116 340.8645671863157ZM624.1184500207537 302.9471176487342L624.1184500207537 302.9471176487342Q619.5200601378085 302.9471176487342 614.8702915969533 303.1269429514192Q610.220523056098 303.3067682541042 605.6221331731529 303.8462441621592L605.6221331731529 303.8462441621592L607.060735594633 375.00568536751206Q611.2994748722082 375.64791859138705 615.6409714656033 375.72498657825207Q619.9824680589985 375.82774389407206 624.4781006261237 375.82774389407206L624.4781006261237 375.82774389407206Q630.5407822595039 375.82774389407206 636.5520852349741 375.10844268333204Q642.5633882104444 374.36345214363695 647.9838366199497 372.69364576156187Q653.3785957004998 371.0238393794868 658.0026749124 368.2750811813017Q662.6010647953452 365.5263229831166 665.9920562174053 361.4160303503165Q669.3830476394654 357.30573771751625 671.2840579821356 351.83391065010113Q673.1593789958506 346.38777291164087 673.1593789958506 339.14338214633057L673.1593789958506 339.14338214633057Q673.1593789958506 332.46415661803036 671.1042326794505 327.1978441822551Q669.0233970340954 321.90584241752487 665.4525803093503 317.8726177715898Q661.8817635846052 313.86508245460965 657.1035483989749 311.0135669406045Q652.2996438843898 308.1877407555544 646.8791954748846 306.36379839974927Q641.4587470653794 304.56554537289924 635.6529587215491 303.74348684633924Q629.8214810487639 302.9471176487342 624.1184500207537 302.9471176487342ZM794.1047397159954 423.50713843455395L771.3439942618645 422.4281866184438L773.6046552099045 412.94882423404846Q770.4448677484395 415.7489610901436 766.5914684051893 418.00962203818364Q762.7637583908942 420.2445936572688 758.704844416004 421.83733205247887Q754.6202411121587 423.40438111873385 750.6127057951786 424.2778183032039Q746.6051704781985 425.125566158719 743.2655577140483 425.125566158719L743.2655577140483 425.125566158719Q737.3827013833532 425.125566158719 731.140194447288 423.40438111873385Q724.9233768401776 421.7088854077038 719.8625790360425 418.26651532773366Q714.8017812319073 414.8241452477635 711.5649257835771 409.6862794567633Q708.3023810062921 404.5484136657631 708.3023810062921 397.7664308216429L708.3023810062921 397.7664308216429Q708.3023810062921 388.92930166112257 711.3594111519371 382.4042121065523Q714.4421306265373 375.9048118809371 719.7341323912674 371.6660726033619Q725.0004448270427 367.4273333257867 732.142078276533 365.39787633834163Q739.2837117260233 363.36841935089654 747.5042969916235 363.36841935089654L747.5042969916235 363.36841935089654Q751.3833856638287 363.36841935089654 755.4422996387189 363.9849632458166Q759.501213613609 364.62719646969157 763.3803022858142 365.8859735884866Q767.2850802869743 367.14475070728173 770.8045183538095 369.22558635263675Q774.3239564206447 371.3064219979919 777.1240932767397 374.1065588540869L777.1240932767397 374.1065588540869Q776.8415106582347 369.22558635263675 775.8139375000346 363.80513794313157Q774.7606750128796 358.3846895336264 772.5513927227496 353.91474629545615Q770.3421104326194 349.44480305728604 766.6428470630993 346.51621955641593Q762.9435836935792 343.5876360555457 757.2405526655689 343.5876360555457L757.2405526655689 343.5876360555457Q748.9428994131036 343.5876360555457 743.2141790561384 347.87775399103094Q737.4854586991731 352.16787192651606 735.301865737998 360.2856998762964L735.301865737998 360.2856998762964L711.8218190731271 357.8452136255714Q713.9797227053473 352.2449399133811 717.9615686933723 347.95482197789596Q721.9434146813976 343.66470404241073 726.9528338276227 340.7874991994507Q731.962252973848 337.88460502753554 737.6652840018581 336.39462394814547Q743.3426257009133 334.9046428687554 749.1227247157885 334.9046428687554L749.1227247157885 334.9046428687554Q757.985543205264 334.9046428687554 764.9730406810243 337.4478864353005Q771.9605381567845 339.96544067289057 777.3039185794247 344.38400525315075Q782.62160967311 348.828259162366 786.3208730426301 354.8138728088812Q790.0458257411052 360.8251757843514 792.3835546760104 367.7356052732467Q794.7212836109154 374.64603476214205 795.8259247559805 382.1986974749123Q796.9048765720905 389.7256708587276 796.9048765720905 397.2269549135879L796.9048765720905 397.2269549135879Q796.9048765720905 403.9061804418881 796.1855753613504 410.4569593254134Q795.4662741506104 417.00773820893863 794.1047397159954 423.50713843455395L794.1047397159954 423.50713843455395ZM776.1222094474947 396.8673043082179L776.1222094474947 396.8673043082179Q776.4047920659997 394.7864686628628 776.5332387107746 392.80839033332774Q776.6616853555497 390.8046226748376 776.8415106582347 388.7237870294826L776.8415106582347 388.7237870294826Q776.4047920659997 384.4850477519074 773.8615484994546 381.1968136456672Q771.3439942618645 377.9085795394271 767.7217988792094 375.596539933477Q764.1252928255092 373.2845003275269 759.860864218979 372.1284805245519Q755.6221249414039 370.9467713926219 751.5632109665137 370.9467713926219L751.5632109665137 370.9467713926219Q746.8620637677485 370.9467713926219 742.8031497928583 372.51382045887686Q738.7442358179683 374.1065588540869 735.7642736591881 376.9837636970471Q732.784311500408 379.88665786896223 731.0631264604228 383.8685038569874Q729.3419414204378 387.82466051605746 729.3419414204378 392.62856503064273L729.3419414204378 392.62856503064273Q729.3419414204378 397.48384820313794 730.8319224998279 401.51707284907303Q732.321903579218 405.52460816605316 735.0449724484481 408.47888099587834Q737.7423519887232 411.40746449674845 741.6728193188383 413.0258922209135Q745.6032866489535 414.6443199450785 750.4842591504037 414.6443199450785L750.4842591504037 414.6443199450785Q754.8257557437988 414.6443199450785 758.961737705554 413.3855428262835Q763.1234089962642 412.12676570748846 766.5914684051893 409.8147261015384Q770.0852171430694 407.5283758245433 772.5513927227496 404.2144523893482Q775.0432576313847 400.92621828310797 776.1222094474947 396.8673043082179ZM881.0631182286738 376.9066957101821L881.0631182286738 376.9066957101821Q881.0631182286738 371.6660726033619 879.9327877546539 365.65476962789165Q878.8024572806337 359.6434666524214 876.1564563982686 354.55697951933115Q873.4847661869485 349.44480305728604 869.1175802645984 346.1565689510458Q864.7247050132931 342.8683348448057 858.3023727745428 343.0481601474907L858.3023727745428 343.0481601474907Q853.6269149047328 343.2279854501757 849.5166222719326 345.74553968776587Q845.4063296391324 348.2630939253559 842.2722315066223 352.19356125547114Q839.1638227030671 356.12402858558625 837.2628123603971 360.87655444226147Q835.3618020177271 365.6033909699816 835.181976715042 370.04764487919675L835.181976715042 370.04764487919675Q834.925083425492 376.7268704074971 834.616811478032 383.53454258057235Q834.282850201617 390.3679040826026 834.282850201617 397.0471296109029L834.282850201617 397.0471296109029Q834.282850201617 400.38674237505296 836.415064504882 403.49515117860807Q838.5215894791921 406.62924931111826 841.7070662696123 409.0440462328883Q844.8668537310774 411.48453248361346 848.5147384426875 412.97451356300354Q852.1626231542978 414.4644946423935 855.3224106157628 414.4644946423935L855.3224106157628 414.4644946423935Q860.023557814528 414.4644946423935 863.7228211840481 412.76899893136346Q867.4220845535683 411.04781389137844 870.3249787254834 408.1449197194633Q873.2021835684435 405.26771487650325 875.2573298848436 401.4656941911631Q877.2867868722886 397.6893628347779 878.5969426489937 393.4763128861577Q879.9070984256988 389.2889522664926 880.4722636627089 384.99883433100734Q881.0631182286738 380.70871639552223 881.0631182286738 376.9066957101821ZM813.1662218006062 296.2422027914789L837.9821135711371 294.00723117239386L836.1067925574221 347.6465500304359Q840.1657065323122 341.2242177916857 846.8963107185225 337.6277117379855Q853.6269149047328 334.00551635533037 862.0273254730181 334.00551635533037L862.0273254730181 334.00551635533037Q871.5066878574135 334.00551635533037 879.1877972149587 337.52495442216554Q886.843217243549 341.0443924890007 892.2379763240992 347.05569546447094Q897.6070460756945 353.0669984399412 900.5356295765646 361.1334477318115Q903.4642130774348 369.22558635263675 903.4642130774348 378.3452981316621L903.4642130774348 378.3452981316621Q903.4642130774348 384.4079797650424 901.9228533401347 390.13670012200765Q900.4071829317896 395.8654204789728 897.6070460756945 400.92621828310797Q894.8069092195993 405.98701608724326 890.8250632315742 410.2257553648183Q886.843217243549 414.4644946423935 881.9365554131439 417.4958354590837Q877.0042042537837 420.5271762757738 871.3268625547285 422.1969826578489Q865.6238315267183 423.86678903992396 859.4070139196081 423.86678903992396L859.4070139196081 423.86678903992396Q856.8637703530628 423.86678903992396 853.5241575889127 423.14748782918394Q850.1845448247626 422.4281866184438 846.6651067579274 421.11803084173886Q843.1456686910924 419.8078750650338 839.7546772690322 417.90686472236365Q836.3636858469721 416.00585437969363 833.923199596247 413.6681254447885L833.923199596247 413.6681254447885L833.4864810040119 425.587974079909L818.5866702101114 426.846751198704L813.1662218006062 296.2422027914789ZM919.0833250820754 281.26532401071336L945.1836833003563 278.8248377599882L940.7651187200961 423.86678903992396L923.5275789912905 425.305391461404L919.0833250820754 281.26532401071336ZM1010.1263068985988 398.12608142701293L1010.1263068985988 398.12608142701293Q1002.9846734491086 398.12608142701293 995.9971759733484 396.27644974225285Q989.0096784975881 394.42681805749277 983.3066474695779 390.3679040826026L983.3066474695779 390.3679040826026Q983.4094047853979 393.88734214943776 983.7690553907678 397.5866055189579Q984.1287059961379 401.2858688884781 984.9764538516529 404.7796176263582Q985.824201707168 408.2476770352833 987.237114799693 411.30470718092846Q988.6243385632631 414.3874266555286 990.859310182348 416.6994662614787Q993.0685924724783 418.9858165384738 996.1770012760335 420.3473509730888Q999.2854100795885 421.7088854077038 1003.6269066729836 421.7088854077038L1003.6269066729836 421.7088854077038Q1007.6858206478739 421.7088854077038 1011.205258714709 420.2189043283137Q1014.7246967815441 418.72892324892376 1017.3963869928642 416.18567968237863Q1020.0680772041843 413.6681254447885 1021.7892622441693 410.2257553648183Q1023.4847579551995 406.80907461380326 1024.1269911790746 402.8272286257781L1024.1269911790746 402.8272286257781L1046.3482607251503 407.7852691140933Q1043.7279491717402 413.3855428262835 1038.9754233150652 417.26463149848865Q1034.248586787345 421.1694094996488 1028.4684877724696 423.5585170924639Q1022.6883887575945 425.947624685279 1016.4201924925742 427.026576501389Q1010.1263068985988 428.10552831749914 1004.3462078837237 428.10552831749914L1004.3462078837237 428.10552831749914Q993.9677189859033 428.10552831749914 985.824201707168 425.04849817185396Q977.7063737573876 421.9657786972538 972.1574787031075 416.18567968237863Q966.6085836488272 410.40558066750344 963.654310819002 402.159306072948Q960.7257273181319 393.88734214943776 960.7257273181319 383.5859212384823L960.7257273181319 383.5859212384823Q960.7257273181319 373.5670829460319 964.1680973981022 364.6785751276016Q967.5847781491173 355.76437798021624 973.7245277693625 349.187909767736Q979.8642773896077 342.5857522263007 988.495891918488 338.7580422120056Q997.1275064473684 334.9046428687554 1007.5059953451888 334.9046428687554L1007.5059953451888 334.9046428687554Q1015.1100367158691 334.9046428687554 1022.5856314417745 336.7542745535155Q1030.0869154966347 338.60390623827556 1036.046839814195 342.5343735683908Q1042.006764131755 346.4648408985059 1045.6803381723203 352.6045905187511Q1049.3282228839305 358.7443401389964 1049.3282228839305 367.4273333257867L1049.3282228839305 367.4273333257867Q1049.3282228839305 375.9048118809371 1045.9372314618704 381.7362895537222Q1042.5462400398103 387.56776722650744 1037.04872364344 391.2156519381177Q1031.525517918115 394.88922597868276 1024.4866417844446 396.5076537028479Q1017.4477656507743 398.12608142701293 1010.1263068985988 398.12608142701293ZM1006.2472182263938 341.5838683970557L1006.2472182263938 341.5838683970557Q1002.0855469356836 341.5838683970557 998.8743808163085 343.2536747791308Q995.6889040258884 344.92348116120587 993.1970391172532 347.8263753331209Q990.7051742086181 350.70358017608106 989.0096784975881 354.4285328745562Q987.2884934576031 358.12779624407636 986.106784325673 362.1867102189664Q984.9250751937429 366.2456241938566 984.3085312988229 370.4072954845669Q983.6662980749479 374.56896677527703 983.4864727722628 378.1654728289771L983.4864727722628 378.1654728289771Q986.928842852233 384.0483291596724 992.6061845512882 387.7989711871025Q998.3092155792986 391.52392388557763 1005.7848103052038 391.52392388557763L1005.7848103052038 391.52392388557763Q1010.588714819789 391.52392388557763 1014.365046176174 389.31464159544754Q1018.1670668615143 387.10535930531745 1020.7873784149244 383.5859212384823Q1023.4076899683346 380.06648317164723 1024.7949137319044 375.72498657825207Q1026.2078268244295 371.3834899848569 1026.2078268244295 367.0676827204167L1026.2078268244295 367.0676827204167Q1026.2078268244295 362.72618612702155 1024.9490497056345 358.15348557303133Q1023.6902725868395 353.6064743479962 1021.1984076782044 349.95858963638597Q1018.7065427695693 346.2850155958209 1014.9559007421391 343.9472866609157Q1011.205258714709 341.5838683970557 1006.2472182263938 341.5838683970557ZM1073.7073960622265 303.3067682541042L1096.4681415163573 297.5266692392289L1095.3891897002472 334.5449922633854L1116.788400719763 334.5449922633854L1116.788400719763 342.1233443051107L1095.2093643975622 342.1233443051107L1092.7688781468373 424.04661434260896L1076.1478823129517 425.587974079909L1074.4266972729665 342.1233443051107L1052.2054277268905 342.1233443051107L1052.2054277268905 334.5449922633854L1074.2468719702815 334.5449922633854L1073.7073960622265 303.3067682541042ZM1154.5517142836147 316.9478019292097L1154.5517142836147 316.9478019292097Q1154.5517142836147 320.18465737753985 1153.3186264937744 323.087551549455Q1152.1112280328896 325.96475639241504 1149.9276350717146 328.1226600246352Q1147.7697314394943 330.3062529858102 1144.8668372675793 331.56503010460534Q1141.9896324246192 332.82380722340037 1138.650019660469 332.82380722340037L1138.650019660469 332.82380722340037Q1135.310406896319 332.82380722340037 1132.3818233954487 331.56503010460534Q1129.4275505656237 330.3062529858102 1127.2696469334037 328.1226600246352Q1125.1117433011837 325.96475639241504 1123.8272768534334 323.087551549455Q1122.5684997346384 320.18465737753985 1122.5684997346384 316.9478019292097L1122.5684997346384 316.9478019292097Q1122.5684997346384 313.58249983610455 1123.8272768534334 310.6539163352345Q1125.1117433011837 307.7253328343644 1127.2696469334037 305.56742920214424Q1129.4275505656237 303.38383624096923 1132.3818233954487 302.1250591221741Q1135.310406896319 300.86628200337907 1138.650019660469 300.86628200337907L1138.650019660469 300.86628200337907Q1141.9896324246192 300.86628200337907 1144.8668372675793 302.1250591221741Q1147.7697314394943 303.38383624096923 1149.9276350717146 305.56742920214424Q1152.1112280328896 307.7253328343644 1153.3186264937744 310.6539163352345Q1154.5517142836147 313.58249983610455 1154.5517142836147 316.9478019292097ZM1126.0879378014736 340.6076738967657L1151.4689948090145 341.9435190024257L1144.6099439780292 428.82482952823915L1127.1668896175834 427.026576501389L1126.0879378014736 340.6076738967657Z " fill="#fbf8be" transform="matrix(0.7578697918189312,0,0,0.7578697918189312,0,31.846808733478625)"/></g></svg>